<svg width="28" height="28" viewBox="0 0 28 28" fill="none" xmlns="http://www.w3.org/2000/svg">
<path opacity="0.5" d="M2.75824 15.1175C2.31556 12.0409 2.09422 10.5026 2.72476 9.18736C3.35529 7.87212 4.69738 7.07265 7.38155 5.4737L8.9972 4.51127C11.4347 3.05926 12.6535 2.33325 14.0002 2.33325C15.3468 2.33325 16.5657 3.05926 19.0031 4.51127L20.6188 5.4737C23.3029 7.07265 24.6451 7.87212 25.2755 9.18736C25.9061 10.5026 25.6848 12.0409 25.242 15.1175L24.9169 17.3777C24.3481 21.3297 24.0638 23.3057 22.693 24.4862C21.322 25.6666 19.3115 25.6666 15.2906 25.6666H12.7097C8.68876 25.6666 6.67826 25.6666 5.30736 24.4862C3.93645 23.3057 3.65212 21.3297 3.08347 17.3777L2.75824 15.1175Z" stroke="#E7E7E7" stroke-width="2"/>
<path d="M10.5 18.6665C11.4921 19.4019 12.6987 19.8332 14 19.8332C15.3013 19.8332 16.5079 19.4019 17.5 18.6665" stroke="#E7E7E7" stroke-width="2" stroke-linecap="round"/>
</svg>
