<svg width="28" height="28" viewBox="0 0 28 28" fill="none" xmlns="http://www.w3.org/2000/svg">
<path opacity="0.5" d="M23.3333 4.66675H3.5" stroke="#E7E7E7" stroke-width="1.5" stroke-linecap="round"/>
<path opacity="0.5" d="M9.33333 16.3335H3.5" stroke="#E7E7E7" stroke-width="1.5" stroke-linecap="round"/>
<path opacity="0.5" d="M14 10.5H3.5" stroke="#E7E7E7" stroke-width="1.5" stroke-linecap="round"/>
<path d="M18.6668 20.3335C18.6668 21.9903 17.361 23.3335 15.7502 23.3335C14.1393 23.3335 12.8335 21.9903 12.8335 20.3335C12.8335 18.6766 14.1393 17.3334 15.7502 17.3334C17.361 17.3334 18.6668 18.6766 18.6668 20.3335ZM18.6668 20.3335V12.8335" stroke="#E7E7E7" stroke-width="1.5"/>
<path d="M21.7873 9.46875L19.7404 10.4513C19.3418 10.6426 19.1425 10.7383 18.9984 10.8858C18.8829 11.0041 18.7938 11.1457 18.7371 11.3011C18.6665 11.4948 18.6665 11.7159 18.6665 12.1581C18.6665 13.1805 18.6665 13.6918 18.8895 13.9985C19.0656 14.241 19.3284 14.4064 19.6233 14.4603C19.9962 14.5285 20.4571 14.3073 21.379 13.8648L23.4259 12.8822C23.8246 12.6909 24.0238 12.5952 24.1679 12.4478C24.2834 12.3295 24.3726 12.1878 24.4293 12.0324C24.4998 11.8388 24.4998 11.6177 24.4998 11.1755C24.4998 10.153 24.4998 9.64173 24.2769 9.33501C24.1007 9.09255 23.838 8.92719 23.5431 8.87326C23.1702 8.80503 22.7092 9.02627 21.7873 9.46875Z" stroke="#E7E7E7" stroke-width="1.5" stroke-linecap="round"/>
</svg>
