<svg width="20" height="20" viewBox="0 0 20 20" fill="none" xmlns="http://www.w3.org/2000/svg">
<path d="M16.3083 4.53337C17.0721 5.30024 17.501 6.33851 17.501 7.42087C17.501 8.50324 17.0721 9.54151 16.3083 10.3084L9.99997 16.6667L3.69163 10.3084C3.12434 9.73725 2.73811 9.01147 2.58131 8.2219C2.4245 7.43233 2.50409 6.61404 2.81009 5.86948C3.1161 5.12492 3.63494 4.48716 4.30165 4.03605C4.96837 3.58494 5.75334 3.34052 6.5583 3.33337C7.63467 3.3399 8.66493 3.77117 9.42497 4.53337C9.64664 4.75273 9.83983 4.99911 9.99997 5.26671C10.1601 4.99911 10.3533 4.75273 10.575 4.53337C10.9495 4.15342 11.3957 3.8517 11.8879 3.64576C12.38 3.43982 12.9082 3.33377 13.4416 3.33377C13.9751 3.33377 14.5033 3.43982 14.9954 3.64576C15.4875 3.8517 15.9338 4.15342 16.3083 4.53337Z" stroke="#748CAB" stroke-opacity="0.7" stroke-width="2" stroke-linecap="round" stroke-linejoin="round"/>
</svg>
