<svg width="19" height="14" viewBox="0 0 19 14" fill="none" xmlns="http://www.w3.org/2000/svg">
<path d="M18.1364 0H0.863636C0.634586 0 0.414916 0.0909902 0.252953 0.252953C0.09099 0.414917 0 0.634586 0 0.863636V6.04545C0 6.27451 0.09099 6.49417 0.252953 6.65614C0.414916 6.8181 0.634586 6.90909 0.863636 6.90909H18.1364C18.3654 6.90909 18.5851 6.8181 18.747 6.65614C18.909 6.49417 19 6.27451 19 6.04545V0.863636C19 0.634586 18.909 0.414917 18.747 0.252953C18.5851 0.0909902 18.3654 0 18.1364 0ZM17.2727 5.18182H1.72727V1.72727H17.2727V5.18182ZM19 9.5C19 9.72905 18.909 9.94872 18.747 10.1107C18.5851 10.2726 18.3654 10.3636 18.1364 10.3636H0.863636C0.634586 10.3636 0.414916 10.2726 0.252953 10.1107C0.09099 9.94872 0 9.72905 0 9.5C0 9.27095 0.09099 9.05128 0.252953 8.88932C0.414916 8.72735 0.634586 8.63636 0.863636 8.63636H18.1364C18.3654 8.63636 18.5851 8.72735 18.747 8.88932C18.909 9.05128 19 9.27095 19 9.5ZM19 12.9545C19 13.1836 18.909 13.4033 18.747 13.5652C18.5851 13.7272 18.3654 13.8182 18.1364 13.8182H0.863636C0.634586 13.8182 0.414916 13.7272 0.252953 13.5652C0.09099 13.4033 0 13.1836 0 12.9545C0 12.7255 0.09099 12.5058 0.252953 12.3439C0.414916 12.1819 0.634586 12.0909 0.863636 12.0909H18.1364C18.3654 12.0909 18.5851 12.1819 18.747 12.3439C18.909 12.5058 19 12.7255 19 12.9545Z" fill="#E0E1DD"/>
</svg>
